<svg version="1.1" id="Layer_1" xmlns="http://www.w3.org/2000/svg" xmlns:xlink="http://www.w3.org/1999/xlink" x="0px" y="0px"
	 width="100%" viewBox="0 0 1094 227" enable-background="new 0 0 1094 227" xml:space="preserve">
<path fill="#FFFFFF" opacity="1.000000" stroke="none" 
	d="
M785.000000,228.000000 
	C523.333313,228.000000 262.166656,228.000000 1.000000,228.000000 
	C1.000000,152.333328 1.000000,76.666664 1.000000,1.000000 
	C365.666656,1.000000 730.333313,1.000000 1095.000000,1.000000 
	C1095.000000,76.666664 1095.000000,152.333328 1095.000000,228.000000 
	C991.833313,228.000000 888.666687,228.000000 785.000000,228.000000 
M211.346954,57.154160 
	C210.276413,55.356567 209.205872,53.558975 207.940338,51.134495 
	C205.999313,49.340050 204.058273,47.545601 201.803329,45.141953 
	C189.060867,37.532822 176.077072,37.752411 165.252777,45.980423 
	C163.468658,47.929451 161.684525,49.878479 159.367065,52.224808 
	C158.307877,54.150593 157.248688,56.076378 155.879227,58.678322 
	C155.377625,60.797001 154.876022,62.915680 154.124710,65.914543 
	C154.348267,68.948425 154.571823,71.982300 154.692795,75.685707 
	C155.800354,78.446198 156.907913,81.206680 158.079788,84.688957 
	C159.060089,86.775208 160.040390,88.861458 161.076462,91.623230 
	C162.036667,93.087196 162.996857,94.551170 164.006454,96.695450 
	C165.162247,98.514297 166.318054,100.333153 167.661362,102.836609 
	C168.754929,104.563438 169.848495,106.290276 171.004272,108.727058 
	C175.198517,115.106636 179.392746,121.486221 184.184830,128.775131 
	C188.960388,121.152420 193.064728,114.601120 197.698837,107.680321 
	C198.729187,105.788116 199.759552,103.895905 201.220657,101.465294 
	C202.196518,99.660774 203.172363,97.856247 204.683701,95.645790 
	C205.504501,93.785515 206.325317,91.925232 207.679153,89.659775 
	C208.705490,87.442673 209.731827,85.225571 211.028168,82.297157 
	C211.737946,79.883759 212.447723,77.470360 213.711426,74.458412 
	C213.757141,71.641388 213.802841,68.824364 213.939651,65.249802 
	C213.138199,62.782455 212.336746,60.315109 211.346954,57.154160 
M263.184357,96.764343 
	C263.508453,98.510925 263.832550,100.257515 264.075073,102.755203 
	C264.396332,104.503479 264.717560,106.251755 264.877869,108.901146 
	C265.017151,111.502205 265.156433,114.103264 265.306213,116.900475 
	C276.031952,116.900475 286.365906,116.900475 297.388275,116.900475 
	C296.804993,113.373299 296.279022,110.192703 295.766022,106.326111 
	C295.228088,104.864716 294.690155,103.403313 294.101166,101.184235 
	C293.199432,98.876549 292.297729,96.568863 291.196106,93.573006 
	C289.912567,92.331245 288.669312,90.066826 287.338928,90.014412 
	C278.977600,89.685005 270.596893,89.847725 261.634583,89.847725 
	C262.272491,92.270493 262.764282,94.138214 263.184357,96.764343 
M224.314865,67.222809 
	C222.856186,69.807098 221.397491,72.391396 219.415237,75.430443 
	C218.317352,78.123787 217.219452,80.817131 216.091599,83.583961 
	C228.667679,83.583961 240.704468,83.583961 253.726700,83.583961 
	C252.002335,79.950027 250.549911,76.889168 248.997940,73.152710 
	C247.596603,71.134178 246.195267,69.115654 244.539703,66.480995 
	C237.236252,59.072708 231.907333,59.205971 224.314865,67.222809 
M274.637695,72.370651 
	C266.650513,65.574127 257.517487,61.284451 247.190613,59.276760 
	C250.537979,64.417053 253.674515,69.233559 256.904785,74.807014 
	C257.586090,76.656029 258.157623,78.556122 258.986145,80.336601 
	C259.565765,81.582115 260.464905,83.641045 261.275696,83.667473 
	C269.056152,83.920967 276.848206,83.819160 284.636932,83.819160 
	C284.810150,83.352547 284.983368,82.885933 285.156555,82.419319 
	C281.695648,79.284294 278.234741,76.149261 274.637695,72.370651 
M274.794922,168.825470 
	C278.027344,165.542358 281.259766,162.259262 284.939545,158.521790 
	C283.298584,158.058212 282.986420,157.895020 282.673126,157.892822 
	C278.185974,157.861389 273.698669,157.841507 269.211395,157.838730 
	C258.920410,157.832382 258.920410,157.836823 255.673248,168.403503 
	C252.916428,172.841690 250.159592,177.279861 247.159744,182.109299 
	C257.245239,179.638611 266.553864,176.162735 274.794922,168.825470 
M195.974350,169.773987 
	C203.971909,175.920349 212.766556,180.243347 222.767990,181.773087 
	C219.519180,177.093262 216.346786,172.523529 213.034302,167.196960 
	C212.240250,164.858536 211.635895,162.429001 210.574646,160.218887 
	C210.017715,159.059036 208.684799,157.492554 207.660492,157.460831 
	C200.113647,157.227127 192.556244,157.334488 185.002167,157.334488 
	C184.778763,157.742279 184.555344,158.150085 184.331940,158.557877 
	C188.071823,162.110123 191.811722,165.662369 195.974350,169.773987 
M263.444458,143.598862 
	C262.988159,145.943558 262.531860,148.288254 262.004974,150.995789 
	C269.356567,150.995789 276.175568,150.539230 282.901825,151.133286 
	C288.792816,151.653549 291.845245,149.460297 293.426788,143.409134 
	C294.203583,140.603516 294.980408,137.797897 296.015625,134.203766 
	C296.540192,130.741043 297.064758,127.278313 297.598694,123.753662 
	C286.415588,123.753662 275.943695,123.753662 264.943024,123.753662 
	C264.943024,127.411606 264.943024,130.689758 264.537598,134.787811 
	C264.299133,137.511917 264.060669,140.236038 263.444458,143.598862 
M178.014008,146.912094 
	C179.383179,148.322113 180.699142,150.886200 182.130280,150.952179 
	C190.521088,151.338989 198.938828,151.142151 207.765121,151.142151 
	C207.078308,148.425949 206.518631,146.212463 206.062576,143.200867 
	C205.695023,141.133041 205.327469,139.065201 205.110718,136.145187 
	C204.576279,132.130768 204.041840,128.116364 203.408035,123.355644 
	C200.354828,123.926247 196.555252,123.526764 194.669495,125.237221 
	C191.486252,128.124527 189.515305,132.348373 186.521347,136.427429 
	C185.619339,137.278381 184.717316,138.129349 183.672302,139.115204 
	C179.886322,133.750519 176.327942,128.708344 172.769577,123.666161 
	C172.194183,123.909561 171.618790,124.152962 171.043396,124.396362 
	C173.335114,131.652100 175.626831,138.907852 178.014008,146.912094 
M212.029388,139.760193 
	C212.396927,141.504837 212.764465,143.249466 213.053970,145.798935 
	C213.519180,147.492188 213.984390,149.185455 214.402023,150.705536 
	C228.353897,150.705536 241.881042,150.705536 255.695862,150.705536 
	C255.919067,148.673309 256.114563,146.893555 256.703522,144.450806 
	C256.843933,142.635986 256.984314,140.821167 257.460175,138.296997 
	C257.622162,136.197052 257.784180,134.097107 258.186920,131.227921 
	C258.441559,128.784103 258.696198,126.340279 258.968689,123.725143 
	C242.783813,123.725143 227.048126,123.725143 211.274048,123.725143 
	C211.274048,126.707123 211.274048,129.346786 211.187195,132.770508 
	C211.499084,134.845306 211.810974,136.920105 212.029388,139.760193 
M256.351685,95.022560 
	C256.365112,90.978737 254.356323,89.504761 250.403168,90.023712 
	C248.283218,90.302002 246.096695,90.073044 243.940216,90.073036 
	C234.051590,90.073029 224.162964,90.073036 214.228989,90.073036 
	C213.884766,92.440834 213.624161,94.233521 213.107651,96.784111 
	C212.868835,98.857780 212.630020,100.931450 212.134323,103.825890 
	C212.057434,105.539925 211.980545,107.253952 211.529938,109.675209 
	C211.343094,112.241821 211.156250,114.808426 210.960098,117.502960 
	C227.258728,117.502960 242.929184,117.502960 259.184052,117.502960 
	C258.803833,114.430084 258.465302,111.694038 258.235901,108.107178 
	C258.046143,106.407234 257.856384,104.707291 257.756012,102.270966 
	C257.297424,100.133652 256.838867,97.996338 256.351685,95.022560 
M221.021332,168.721390 
	C221.443771,169.429245 221.833954,170.158813 222.293442,170.841751 
	C230.520920,183.070480 239.078781,183.073410 247.242813,170.842148 
	C247.597702,170.310455 247.776962,169.661545 248.561600,168.599472 
	C250.169235,165.085480 251.776886,161.571503 253.645889,157.486206 
	C240.642807,157.486206 228.636795,157.486206 215.691513,157.486206 
	C217.604111,161.353119 219.256226,164.693405 221.021332,168.721390 
M639.082703,99.310081 
	C642.439880,98.517128 645.796997,97.724174 649.128296,96.937332 
	C646.508972,78.965828 629.064636,66.659004 608.613770,68.114777 
	C587.592651,69.611130 570.884460,86.910820 571.300476,107.339920 
	C571.750916,129.460464 587.553772,145.557556 610.036133,146.779678 
	C628.942322,147.807373 646.805237,136.439285 649.231445,116.726448 
	C643.326538,115.575302 637.393311,114.418625 631.553772,113.280228 
	C626.579590,126.413918 619.638550,131.185074 608.461304,129.537659 
	C598.264282,128.034698 590.911011,119.894463 590.116028,109.228844 
	C589.340881,98.830261 595.577942,88.158485 604.533569,86.314659 
	C609.334351,85.326271 614.749390,85.508949 619.528564,86.656776 
	C626.574707,88.349068 629.339844,94.792892 631.643860,101.034088 
	C634.123291,100.500740 636.217651,100.050217 639.082703,99.310081 
M365.648956,139.128693 
	C378.401642,127.529938 374.631165,107.928223 358.319855,102.401260 
	C351.115753,99.960205 343.521851,98.690758 336.173584,96.642975 
	C333.500153,95.897957 330.037720,94.641487 330.939667,91.152565 
	C331.621552,88.514877 333.611237,85.342537 335.916382,84.164749 
	C342.234558,80.936592 349.861725,83.737740 352.675140,90.188934 
	C353.963745,93.143684 355.461975,93.398354 357.961151,92.837608 
	C362.607666,91.795059 367.258820,90.773163 373.545776,89.379662 
	C370.088409,84.380440 367.779297,79.261421 363.949768,75.848312 
	C353.724548,66.734962 341.388000,66.307388 328.799438,69.651299 
	C317.900879,72.546280 311.196564,81.098190 310.990967,91.521828 
	C310.789154,101.755791 316.526642,109.200386 327.916901,112.579117 
	C334.269653,114.463570 340.854645,115.566154 347.336456,117.014359 
	C351.003357,117.833649 354.207886,119.406441 354.006256,123.725731 
	C353.809357,127.943756 350.866913,130.068665 346.936432,130.910934 
	C337.933655,132.840179 332.632996,129.965881 327.568146,120.338768 
	C321.378998,121.572128 315.150604,122.813309 308.967010,124.045570 
	C310.124542,131.069946 313.345673,136.055252 318.446075,139.981979 
	C330.548920,149.299774 354.193817,149.127167 365.648956,139.128693 
M384.151031,134.499954 
	C384.151031,144.419769 384.151031,154.339600 384.151031,164.162018 
	C390.529205,164.162018 396.244446,164.162018 402.187012,164.162018 
	C402.187012,160.142914 402.187012,156.491638 402.187012,152.840347 
	C402.187012,149.158447 402.187012,145.476547 402.187012,141.385010 
	C416.996521,149.077545 427.687500,148.537415 437.711731,140.090576 
	C446.344269,132.816437 450.718140,117.732414 445.575958,105.767159 
	C436.902222,85.584114 421.663971,82.431168 402.633423,91.990150 
	C402.315338,90.857307 401.983856,89.676743 401.733154,88.783768 
	C395.770386,88.783768 390.150543,88.783768 384.151031,88.783768 
	C384.151031,103.898537 384.151031,118.699242 384.151031,134.499954 
M762.978760,145.530823 
	C765.662842,144.315292 768.346863,143.099762 771.294189,141.765015 
	C771.637207,142.759872 772.067261,144.007202 772.375854,144.902222 
	C778.439392,144.902222 784.042419,144.902222 789.601807,144.902222 
	C789.601807,126.035477 789.601807,107.454117 789.601807,88.671341 
	C783.740295,88.671341 778.119446,88.671341 772.298340,88.671341 
	C771.998596,89.751144 771.670471,90.933189 771.364441,92.035408 
	C768.420715,90.673958 765.864807,89.094002 763.084717,88.275421 
	C751.485657,84.860229 741.136047,87.300583 733.434265,96.716644 
	C725.157104,106.836250 724.425659,118.591331 729.260193,130.403778 
	C734.050354,142.107727 746.586731,149.631149 762.978760,145.530823 
M667.566772,63.992104 
	C665.154724,63.992104 662.742615,63.992104 660.455688,63.992104 
	C660.455688,91.459854 660.455688,118.184258 660.455688,144.856567 
	C666.493469,144.856567 672.228027,144.856567 678.177673,144.856567 
	C678.177673,139.230118 678.064087,133.919968 678.209167,128.616928 
	C678.358887,123.147682 678.200439,117.582520 679.181030,112.243752 
	C680.703186,103.956757 689.205261,100.111229 695.244629,105.241234 
	C697.912354,107.507202 699.384766,112.317261 699.622131,116.084427 
	C700.224487,125.640831 699.822266,135.260529 699.822266,144.866608 
	C706.081726,144.866608 711.799805,144.866608 717.801086,144.866608 
	C717.801086,132.936295 718.360168,121.281357 717.666016,109.701538 
	C716.700256,93.591118 706.741943,85.035622 692.015320,87.308434 
	C687.347717,88.028801 682.966797,90.606346 678.022949,92.499313 
	C678.022949,83.160431 678.022949,73.653755 678.022949,63.992104 
	C674.499512,63.992104 671.517761,63.992104 667.566772,63.992104 
M897.340271,127.706558 
	C893.614624,132.868988 888.295593,133.005890 883.030762,131.516754 
	C878.516235,130.239838 875.990479,126.650848 875.029358,121.411674 
	C888.984741,121.411674 902.401978,121.411674 915.762573,121.411674 
	C917.751160,104.135612 907.689880,89.695251 892.236206,87.165169 
	C876.066101,84.517807 861.307312,94.341988 857.732300,110.132614 
	C854.181396,125.817078 863.100220,141.264679 878.204102,145.590286 
	C893.929504,150.093903 909.960388,142.899643 914.658936,129.121735 
	C912.541016,128.664642 910.456726,128.024765 908.328430,127.798538 
	C904.856018,127.429451 901.355042,127.330200 897.340271,127.706558 
M454.541565,125.093941 
	C458.744263,141.189484 475.904083,150.106949 493.704010,145.445541 
	C506.838226,142.005951 515.513794,130.756561 515.709106,116.912079 
	C515.890137,104.082359 507.109863,92.668312 494.759125,88.630699 
	C474.658386,82.059502 448.156860,96.703758 454.541565,125.093941 
M829.574707,87.007027 
	C826.751526,87.001846 823.892883,86.706085 821.111938,87.046219 
	C812.921936,88.047905 805.538757,90.732742 801.860718,98.933022 
	C797.040466,109.679932 802.951843,119.370346 815.923889,122.298813 
	C820.780457,123.395195 825.718567,124.188942 830.489014,125.571106 
	C831.876343,125.973045 833.490784,127.821960 833.719849,129.217880 
	C833.876343,130.171341 832.021423,131.921753 830.700195,132.565475 
	C826.317810,134.700577 820.553284,132.865402 817.412659,129.019379 
	C816.604065,128.029160 814.762207,127.121399 813.590881,127.321617 
	C808.748230,128.149368 803.980896,129.416946 799.201172,130.519409 
	C800.094727,136.418594 803.201050,140.608917 808.190125,143.098572 
	C817.351562,147.670288 827.132385,148.151154 836.806824,145.480286 
	C846.781677,142.726501 851.856506,135.643707 851.303284,126.854439 
	C850.752136,118.098740 845.745422,113.060905 835.260681,110.740921 
	C831.052551,109.809776 826.755310,109.171204 822.663208,107.878395 
	C820.956787,107.339279 819.679626,105.441597 818.207275,104.161667 
	C819.818359,102.755936 821.595642,100.030411 823.007263,100.208221 
	C826.359253,100.630447 829.576782,102.338585 832.764832,103.720535 
	C833.816406,104.176361 834.726685,105.994568 835.504272,105.877640 
	C840.457581,105.132774 845.355713,104.021133 850.554382,102.973404 
	C847.069092,92.560196 839.541016,88.796638 829.574707,87.007027 
M528.990356,79.525345 
	C528.990356,82.455444 528.990356,85.385544 528.990356,88.724838 
	C525.288391,88.724838 522.196289,88.724838 519.073853,88.724838 
	C519.073853,93.579826 519.073853,98.007416 519.073853,102.825172 
	C522.403381,102.825172 525.488464,102.825172 529.030212,102.825172 
	C529.030212,110.669235 528.841431,118.130577 529.071655,125.578972 
	C529.481140,138.823944 537.079468,146.666290 550.329651,146.694336 
	C555.897522,146.706116 561.469482,144.844330 567.423218,143.764709 
	C565.638672,137.941895 564.254761,133.426132 562.817749,128.737259 
	C560.427063,129.405106 558.413208,130.128540 556.336670,130.515503 
	C551.460022,131.424271 547.549438,128.847687 547.279663,123.915596 
	C546.901184,116.997116 547.184021,110.042458 547.184021,102.720551 
	C552.794800,102.720551 558.057312,102.720551 563.512451,102.720551 
	C563.512451,97.800972 563.512451,93.276100 563.512451,88.408081 
	C557.923157,88.408081 552.656921,88.408081 546.852173,88.408081 
	C546.852173,82.679688 546.852173,77.284103 546.852173,72.002289 
	C540.678833,72.002289 535.058960,72.002289 528.990356,72.002289 
	C528.990356,74.297768 528.990356,76.418144 528.990356,79.525345 
z"/>
<path fill="#13101E" opacity="1.000000" stroke="none" 
	d="
M638.697388,99.454887 
	C636.217651,100.050217 634.123291,100.500740 631.643860,101.034088 
	C629.339844,94.792892 626.574707,88.349068 619.528564,86.656776 
	C614.749390,85.508949 609.334351,85.326271 604.533569,86.314659 
	C595.577942,88.158485 589.340881,98.830261 590.116028,109.228844 
	C590.911011,119.894463 598.264282,128.034698 608.461304,129.537659 
	C619.638550,131.185074 626.579590,126.413918 631.553772,113.280228 
	C637.393311,114.418625 643.326538,115.575302 649.231445,116.726448 
	C646.805237,136.439285 628.942322,147.807373 610.036133,146.779678 
	C587.553772,145.557556 571.750916,129.460464 571.300476,107.339920 
	C570.884460,86.910820 587.592651,69.611130 608.613770,68.114777 
	C629.064636,66.659004 646.508972,78.965828 649.128296,96.937332 
	C645.796997,97.724174 642.439880,98.517128 638.697388,99.454887 
z"/>
<path fill="#13101D" opacity="1.000000" stroke="none" 
	d="
M365.384918,139.368896 
	C354.193817,149.127167 330.548920,149.299774 318.446075,139.981979 
	C313.345673,136.055252 310.124542,131.069946 308.967010,124.045570 
	C315.150604,122.813309 321.378998,121.572128 327.568146,120.338768 
	C332.632996,129.965881 337.933655,132.840179 346.936432,130.910934 
	C350.866913,130.068665 353.809357,127.943756 354.006256,123.725731 
	C354.207886,119.406441 351.003357,117.833649 347.336456,117.014359 
	C340.854645,115.566154 334.269653,114.463570 327.916901,112.579117 
	C316.526642,109.200386 310.789154,101.755791 310.990967,91.521828 
	C311.196564,81.098190 317.900879,72.546280 328.799438,69.651299 
	C341.388000,66.307388 353.724548,66.734962 363.949768,75.848312 
	C367.779297,79.261421 370.088409,84.380440 373.545776,89.379662 
	C367.258820,90.773163 362.607666,91.795059 357.961151,92.837608 
	C355.461975,93.398354 353.963745,93.143684 352.675140,90.188934 
	C349.861725,83.737740 342.234558,80.936592 335.916382,84.164749 
	C333.611237,85.342537 331.621552,88.514877 330.939667,91.152565 
	C330.037720,94.641487 333.500153,95.897957 336.173584,96.642975 
	C343.521851,98.690758 351.115753,99.960205 358.319855,102.401260 
	C374.631165,107.928223 378.401642,127.529938 365.384918,139.368896 
z"/>
<path fill="#14111E" opacity="1.000000" stroke="none" 
	d="
M384.151031,133.999939 
	C384.151031,118.699242 384.151031,103.898537 384.151031,88.783768 
	C390.150543,88.783768 395.770386,88.783768 401.733154,88.783768 
	C401.983856,89.676743 402.315338,90.857307 402.633423,91.990150 
	C421.663971,82.431168 436.902222,85.584114 445.575958,105.767159 
	C450.718140,117.732414 446.344269,132.816437 437.711731,140.090576 
	C427.687500,148.537415 416.996521,149.077545 402.187012,141.385010 
	C402.187012,145.476547 402.187012,149.158447 402.187012,152.840347 
	C402.187012,156.491638 402.187012,160.142914 402.187012,164.162018 
	C396.244446,164.162018 390.529205,164.162018 384.151031,164.162018 
	C384.151031,154.339600 384.151031,144.419769 384.151031,133.999939 
M428.436127,123.551193 
	C428.897278,121.129868 429.753784,118.707840 429.749481,116.287338 
	C429.732971,107.006317 421.741089,100.489700 413.264740,102.611534 
	C406.752411,104.241737 402.651642,109.334053 402.278778,116.253784 
	C401.919220,122.927094 405.868195,128.807159 412.043518,130.793518 
	C418.397949,132.837494 423.509796,130.747833 428.436127,123.551193 
z"/>
<path fill="#13101E" opacity="1.000000" stroke="none" 
	d="
M762.606323,145.704788 
	C746.586731,149.631149 734.050354,142.107727 729.260193,130.403778 
	C724.425659,118.591331 725.157104,106.836250 733.434265,96.716644 
	C741.136047,87.300583 751.485657,84.860229 763.084717,88.275421 
	C765.864807,89.094002 768.420715,90.673958 771.364441,92.035408 
	C771.670471,90.933189 771.998596,89.751144 772.298340,88.671341 
	C778.119446,88.671341 783.740295,88.671341 789.601807,88.671341 
	C789.601807,107.454117 789.601807,126.035477 789.601807,144.902222 
	C784.042419,144.902222 778.439392,144.902222 772.375854,144.902222 
	C772.067261,144.007202 771.637207,142.759872 771.294189,141.765015 
	C768.346863,143.099762 765.662842,144.315292 762.606323,145.704788 
M765.596375,104.639122 
	C755.488281,99.569115 746.918579,103.184509 744.516052,113.532547 
	C742.863770,120.649223 746.737183,128.531784 752.965759,130.728134 
	C759.649292,133.084915 766.984436,130.075104 770.178101,123.665207 
	C773.161987,117.676460 771.666992,110.820343 765.596375,104.639122 
z"/>
<path fill="#110E1C" opacity="1.000000" stroke="none" 
	d="
M668.051392,63.992104 
	C671.517761,63.992104 674.499512,63.992104 678.022949,63.992104 
	C678.022949,73.653755 678.022949,83.160431 678.022949,92.499313 
	C682.966797,90.606346 687.347717,88.028801 692.015320,87.308434 
	C706.741943,85.035622 716.700256,93.591118 717.666016,109.701538 
	C718.360168,121.281357 717.801086,132.936295 717.801086,144.866608 
	C711.799805,144.866608 706.081726,144.866608 699.822266,144.866608 
	C699.822266,135.260529 700.224487,125.640831 699.622131,116.084427 
	C699.384766,112.317261 697.912354,107.507202 695.244629,105.241234 
	C689.205261,100.111229 680.703186,103.956757 679.181030,112.243752 
	C678.200439,117.582520 678.358887,123.147682 678.209167,128.616928 
	C678.064087,133.919968 678.177673,139.230118 678.177673,144.856567 
	C672.228027,144.856567 666.493469,144.856567 660.455688,144.856567 
	C660.455688,118.184258 660.455688,91.459854 660.455688,63.992104 
	C662.742615,63.992104 665.154724,63.992104 668.051392,63.992104 
z"/>
<path fill="#14111E" opacity="1.000000" stroke="none" 
	d="
M897.603149,127.411819 
	C901.355042,127.330200 904.856018,127.429451 908.328430,127.798538 
	C910.456726,128.024765 912.541016,128.664642 914.658936,129.121735 
	C909.960388,142.899643 893.929504,150.093903 878.204102,145.590286 
	C863.100220,141.264679 854.181396,125.817078 857.732300,110.132614 
	C861.307312,94.341988 876.066101,84.517807 892.236206,87.165169 
	C907.689880,89.695251 917.751160,104.135612 915.762573,121.411674 
	C902.401978,121.411674 888.984741,121.411674 875.029358,121.411674 
	C875.990479,126.650848 878.516235,130.239838 883.030762,131.516754 
	C888.295593,133.005890 893.614624,132.868988 897.603149,127.411819 
M877.616028,106.041351 
	C876.838745,107.372032 876.061401,108.702721 875.134949,110.288795 
	C883.122437,110.288795 890.438354,110.288795 897.776184,110.288795 
	C896.818054,100.966141 882.990417,98.907242 877.616028,106.041351 
z"/>
<path fill="#13101E" opacity="1.000000" stroke="none" 
	d="
M454.335480,124.736053 
	C448.156860,96.703758 474.658386,82.059502 494.759125,88.630699 
	C507.109863,92.668312 515.890137,104.082359 515.709106,116.912079 
	C515.513794,130.756561 506.838226,142.005951 493.704010,145.445541 
	C475.904083,150.106949 458.744263,141.189484 454.335480,124.736053 
M498.035797,118.212280 
	C499.079498,107.093750 489.469818,100.748886 481.978943,102.510689 
	C474.334595,104.308586 470.277130,110.057777 470.839874,118.273216 
	C471.337646,125.540215 476.715851,130.995926 483.826324,131.446838 
	C490.927246,131.897141 496.060303,127.407906 498.035797,118.212280 
z"/>
<path fill="#14111E" opacity="1.000000" stroke="none" 
	d="
M829.987000,87.072388 
	C839.541016,88.796638 847.069092,92.560196 850.554382,102.973404 
	C845.355713,104.021133 840.457581,105.132774 835.504272,105.877640 
	C834.726685,105.994568 833.816406,104.176361 832.764832,103.720535 
	C829.576782,102.338585 826.359253,100.630447 823.007263,100.208221 
	C821.595642,100.030411 819.818359,102.755936 818.207275,104.161652 
	C819.679626,105.441597 820.956787,107.339279 822.663208,107.878395 
	C826.755310,109.171204 831.052551,109.809776 835.260681,110.740921 
	C845.745422,113.060905 850.752136,118.098740 851.303284,126.854439 
	C851.856506,135.643707 846.781677,142.726501 836.806824,145.480286 
	C827.132385,148.151154 817.351562,147.670288 808.190125,143.098572 
	C803.201050,140.608917 800.094727,136.418594 799.201172,130.519409 
	C803.980896,129.416946 808.748230,128.149368 813.590881,127.321617 
	C814.762207,127.121399 816.604065,128.029160 817.412659,129.019379 
	C820.553284,132.865402 826.317810,134.700577 830.700195,132.565475 
	C832.021423,131.921753 833.876343,130.171341 833.719849,129.217880 
	C833.490784,127.821960 831.876343,125.973045 830.489014,125.571106 
	C825.718567,124.188942 820.780457,123.395195 815.923889,122.298813 
	C802.951843,119.370346 797.040466,109.679932 801.860718,98.933022 
	C805.538757,90.732742 812.921936,88.047905 821.111938,87.046219 
	C823.892883,86.706085 826.751526,87.001846 829.987000,87.072388 
z"/>
<path fill="#120F1D" opacity="1.000000" stroke="none" 
	d="
M528.990356,79.031937 
	C528.990356,76.418144 528.990356,74.297768 528.990356,72.002289 
	C535.058960,72.002289 540.678833,72.002289 546.852173,72.002289 
	C546.852173,77.284103 546.852173,82.679688 546.852173,88.408081 
	C552.656921,88.408081 557.923157,88.408081 563.512451,88.408081 
	C563.512451,93.276100 563.512451,97.800972 563.512451,102.720551 
	C558.057312,102.720551 552.794800,102.720551 547.184021,102.720551 
	C547.184021,110.042458 546.901184,116.997116 547.279663,123.915596 
	C547.549438,128.847687 551.460022,131.424271 556.336670,130.515503 
	C558.413208,130.128540 560.427063,129.405106 562.817749,128.737259 
	C564.254761,133.426132 565.638672,137.941895 567.423218,143.764709 
	C561.469482,144.844330 555.897522,146.706116 550.329651,146.694336 
	C537.079468,146.666290 529.481140,138.823944 529.071655,125.578972 
	C528.841431,118.130577 529.030212,110.669235 529.030212,102.825172 
	C525.488464,102.825172 522.403381,102.825172 519.073853,102.825172 
	C519.073853,98.007416 519.073853,93.579826 519.073853,88.724838 
	C522.196289,88.724838 525.288391,88.724838 528.990356,88.724838 
	C528.990356,85.385544 528.990356,82.455444 528.990356,79.031937 
z"/>
<path fill="#FE3047" opacity="1.000000" stroke="none" 
	d="
M258.126770,108.958008 
	C258.465302,111.694038 258.803833,114.430084 259.184052,117.502960 
	C242.929184,117.502960 227.258728,117.502960 210.960098,117.502960 
	C211.156250,114.808426 211.343094,112.241821 212.191803,109.332985 
	C227.944687,108.979843 243.035736,108.968925 258.126770,108.958008 
z"/>
<path fill="#FF3C41" opacity="1.000000" stroke="none" 
	d="
M211.274048,131.986450 
	C211.274048,129.346786 211.274048,126.707123 211.274048,123.725143 
	C227.048126,123.725143 242.783813,123.725143 258.968689,123.725143 
	C258.696198,126.340279 258.441559,128.784103 257.601624,131.613403 
	C241.768875,131.994751 226.521469,131.990601 211.274048,131.986450 
z"/>
<path fill="#FF7753" opacity="1.000000" stroke="none" 
	d="
M220.908356,168.033691 
	C219.256226,164.693405 217.604111,161.353119 215.691513,157.486206 
	C228.636795,157.486206 240.642807,157.486206 253.645889,157.486206 
	C251.776886,161.571503 250.169235,165.085480 248.010437,168.525101 
	C238.608963,168.311707 229.758667,168.172699 220.908356,168.033691 
z"/>
<path fill="#FF464A" opacity="1.000000" stroke="none" 
	d="
M264.943024,133.967896 
	C264.943024,130.689758 264.943024,127.411606 264.943024,123.753662 
	C275.943695,123.753662 286.415588,123.753662 297.598694,123.753662 
	C297.064758,127.278313 296.540192,130.741043 295.488892,134.533142 
	C293.030762,134.575195 291.102264,134.064346 289.167511,134.039581 
	C281.093689,133.936127 273.018005,133.978806 264.943024,133.967896 
z"/>
<path fill="#CC2F68" opacity="1.000000" stroke="none" 
	d="
M210.758163,83.008469 
	C209.731827,85.225571 208.705490,87.442673 207.018555,89.692741 
	C205.571548,89.492386 204.785889,89.058601 203.998611,89.055618 
	C190.902954,89.005951 177.806580,88.958199 164.712128,89.087379 
	C163.475662,89.099586 162.250885,90.299309 161.020691,90.947701 
	C160.040390,88.861458 159.060089,86.775208 158.319855,84.047325 
	C164.105530,82.908783 169.651138,82.411880 175.560364,82.012489 
	C182.195801,86.191788 188.165833,84.710869 194.279388,81.407593 
	C199.944000,82.127472 205.351074,82.567970 210.758163,83.008469 
z"/>
<path fill="#E8274F" opacity="1.000000" stroke="none" 
	d="
M212.391220,103.005119 
	C212.630020,100.931450 212.868835,98.857780 213.679840,96.399414 
	C228.294785,95.962814 242.337540,95.910919 256.380280,95.859024 
	C256.838867,97.996338 257.297424,100.133652 257.264832,102.638847 
	C241.979523,103.006187 227.185379,103.005653 212.391220,103.005119 
z"/>
<path fill="#BE3376" opacity="1.000000" stroke="none" 
	d="
M249.097504,73.828308 
	C250.549911,76.889168 252.002335,79.950027 253.726700,83.583961 
	C240.704468,83.583961 228.667679,83.583961 216.091599,83.583961 
	C217.219452,80.817131 218.317352,78.123787 220.149750,75.210388 
	C228.611740,74.993553 236.340240,75.064606 244.065872,74.946655 
	C245.748383,74.920967 247.420547,74.218880 249.097504,73.828308 
z"/>
<path fill="#D92A5C" opacity="1.000000" stroke="none" 
	d="
M161.048584,91.285461 
	C162.250885,90.299309 163.475662,89.099586 164.712128,89.087379 
	C177.806580,88.958199 190.902954,89.005951 203.998611,89.055618 
	C204.785889,89.058601 205.571548,89.492386 206.752045,89.895332 
	C206.325317,91.925232 205.504501,93.785515 203.937469,95.832916 
	C190.113174,96.018410 177.035110,96.016769 163.957062,96.015137 
	C162.996857,94.551170 162.036667,93.087196 161.048584,91.285461 
z"/>
<path fill="#FF5045" opacity="1.000000" stroke="none" 
	d="
M257.124695,139.006348 
	C256.984314,140.821167 256.843933,142.635986 256.016022,144.748367 
	C241.263016,145.028656 227.197495,145.011383 213.131989,144.994110 
	C212.764465,143.249466 212.396927,141.504837 212.502396,139.378983 
	C227.691833,139.000626 242.408264,139.003494 257.124695,139.006348 
z"/>
<path fill="#FE2B41" opacity="1.000000" stroke="none" 
	d="
M197.169052,108.049820 
	C193.064728,114.601120 188.960388,121.152420 184.184830,128.775131 
	C179.392746,121.486221 175.198517,115.106636 171.445663,108.366608 
	C180.314392,108.020714 188.741714,108.035271 197.169052,108.049820 
z"/>
<path fill="#FE263F" opacity="1.000000" stroke="none" 
	d="
M295.753052,107.012115 
	C296.279022,110.192703 296.804993,113.373299 297.388275,116.900475 
	C286.365906,116.900475 276.031952,116.900475 265.306213,116.900475 
	C265.156433,114.103264 265.017151,111.502205 265.424347,108.449715 
	C267.966125,107.998039 269.963898,108.061928 271.956329,107.986305 
	C279.889465,107.685196 287.820923,107.340599 295.753052,107.012115 
z"/>
<path fill="#FF4743" opacity="1.000000" stroke="none" 
	d="
M257.292419,138.651672 
	C242.408264,139.003494 227.691833,139.000626 212.549133,138.996338 
	C211.810974,136.920105 211.499084,134.845306 211.230621,132.378479 
	C226.521469,131.990601 241.768875,131.994751 257.481232,131.998016 
	C257.784180,134.097107 257.622162,136.197052 257.292419,138.651672 
z"/>
<path fill="#FF514A" opacity="1.000000" stroke="none" 
	d="
M204.959915,136.997375 
	C205.327469,139.065201 205.695023,141.133041 205.544983,143.600464 
	C197.653595,144.000259 190.275772,143.870193 182.909103,144.099182 
	C181.225830,144.151505 179.581039,145.442612 177.918549,146.163589 
	C175.626831,138.907852 173.335114,131.652100 171.043396,124.396362 
	C171.618790,124.152962 172.194183,123.909561 172.769577,123.666161 
	C176.327942,128.708344 179.886322,133.750519 183.672302,139.115204 
	C184.717316,138.129349 185.619339,137.278381 187.204163,136.218414 
	C193.577972,136.338730 199.268936,136.668060 204.959915,136.997375 
z"/>
<path fill="#FF4C46" opacity="1.000000" stroke="none" 
	d="
M264.740295,134.377869 
	C273.018005,133.978806 281.093689,133.936127 289.167511,134.039581 
	C291.102264,134.064346 293.030762,134.575195 295.359680,134.927399 
	C294.980408,137.797897 294.203583,140.603516 292.898499,143.386292 
	C282.854218,143.229004 273.338226,143.094574 263.822205,142.960144 
	C264.060669,140.236038 264.299133,137.511917 264.740295,134.377869 
z"/>
<path fill="#F52344" opacity="1.000000" stroke="none" 
	d="
M212.262772,103.415504 
	C227.185379,103.005653 241.979523,103.006187 257.220154,103.007034 
	C257.856384,104.707291 258.046143,106.407234 258.181335,108.532593 
	C243.035736,108.968925 227.944687,108.979843 212.378662,108.979370 
	C211.980545,107.253952 212.057434,105.539925 212.262772,103.415504 
z"/>
<path fill="#FF7753" opacity="1.000000" stroke="none" 
	d="
M195.551620,169.214600 
	C191.811722,165.662369 188.071823,162.110123 184.331940,158.557877 
	C184.555344,158.150085 184.778763,157.742279 185.002167,157.334488 
	C192.556244,157.334488 200.113647,157.227127 207.660492,157.460831 
	C208.684799,157.492554 210.017715,159.059036 210.574646,160.218887 
	C211.635895,162.429001 212.240250,164.858536 212.624664,167.589874 
	C206.660553,168.393402 201.106094,168.804001 195.551620,169.214600 
z"/>
<path fill="#8238A0" opacity="1.000000" stroke="none" 
	d="
M202.117249,45.751152 
	C204.058273,47.545601 205.999313,49.340050 207.759827,51.782829 
	C201.882004,52.621468 196.177399,52.701332 190.492157,53.075336 
	C188.962387,53.175976 187.491455,54.170765 185.578644,54.792107 
	C183.776947,54.835999 182.390152,54.842888 180.895233,54.466057 
	C176.815872,53.722206 172.839844,53.406986 168.874893,52.987278 
	C165.876068,52.669842 162.891373,52.218983 159.900391,51.827507 
	C161.684525,49.878479 163.468658,47.929451 165.758484,46.235062 
	C167.577713,46.992367 168.885223,47.911369 170.205750,47.930470 
	C179.111191,48.059280 188.022324,48.115940 196.924194,47.895649 
	C198.671829,47.852402 200.387070,46.499851 202.117249,45.751152 
z"/>
<path fill="#FF5A47" opacity="1.000000" stroke="none" 
	d="
M213.092987,145.396515 
	C227.197495,145.011383 241.263016,145.028656 255.819275,145.079865 
	C256.114563,146.893555 255.919067,148.673309 255.695862,150.705536 
	C241.881042,150.705536 228.353897,150.705536 214.402023,150.705536 
	C213.984390,149.185455 213.519180,147.492188 213.092987,145.396515 
z"/>
<path fill="#DC2E5E" opacity="1.000000" stroke="none" 
	d="
M256.365967,95.440796 
	C242.337540,95.910919 228.294785,95.962814 213.807800,96.020462 
	C213.624161,94.233521 213.884766,92.440834 214.228989,90.073036 
	C224.162964,90.073036 234.051590,90.073029 243.940216,90.073036 
	C246.096695,90.073044 248.283218,90.302002 250.403168,90.023712 
	C254.356323,89.504761 256.365112,90.978737 256.365967,95.440796 
z"/>
<path fill="#FF714B" opacity="1.000000" stroke="none" 
	d="
M256.265076,168.035278 
	C258.920410,157.836823 258.920410,157.832382 269.211395,157.838730 
	C273.698669,157.841507 278.185974,157.861389 282.673126,157.892822 
	C282.986420,157.895020 283.298584,158.058212 284.939545,158.521790 
	C281.259766,162.259262 278.027344,165.542358 274.053375,168.916016 
	C267.629578,168.682816 261.947327,168.359055 256.265076,168.035278 
z"/>
<path fill="#773BA9" opacity="1.000000" stroke="none" 
	d="
M201.960297,45.446556 
	C200.387070,46.499851 198.671829,47.852402 196.924194,47.895649 
	C188.022324,48.115940 179.111191,48.059280 170.205750,47.930470 
	C168.885223,47.911369 167.577713,46.992367 166.073700,46.119579 
	C176.077072,37.752411 189.060867,37.532822 201.960297,45.446556 
z"/>
<path fill="#FF5847" opacity="1.000000" stroke="none" 
	d="
M263.633331,143.279495 
	C273.338226,143.094574 282.854218,143.229004 292.669739,143.648849 
	C291.845245,149.460297 288.792816,151.653549 282.901825,151.133286 
	C276.175568,150.539230 269.356567,150.995789 262.004974,150.995789 
	C262.531860,148.288254 262.988159,145.943558 263.633331,143.279495 
z"/>
<path fill="#FF8250" opacity="1.000000" stroke="none" 
	d="
M220.964844,168.377533 
	C229.758667,168.172699 238.608963,168.311707 247.748657,168.758972 
	C247.776962,169.661545 247.597702,170.310455 247.242813,170.842148 
	C239.078781,183.073410 230.520920,183.070480 222.293442,170.841751 
	C221.833954,170.158813 221.443771,169.429245 220.964844,168.377533 
z"/>
<path fill="#BE3376" opacity="1.000000" stroke="none" 
	d="
M274.773804,73.014236 
	C278.234741,76.149261 281.695648,79.284294 285.156555,82.419319 
	C284.983368,82.885933 284.810150,83.352547 284.636932,83.819160 
	C276.848206,83.819160 269.056152,83.920967 261.275696,83.667473 
	C260.464905,83.641045 259.565765,81.582115 258.986145,80.336601 
	C258.157623,78.556122 257.586090,76.656029 257.337860,74.411560 
	C263.438568,73.682152 269.106171,73.348198 274.773804,73.014236 
z"/>
<path fill="#E62852" opacity="1.000000" stroke="none" 
	d="
M163.981750,96.355293 
	C177.035110,96.016769 190.113174,96.018410 203.669708,96.035881 
	C203.172363,97.856247 202.196518,99.660774 200.550934,101.734055 
	C189.078766,102.052544 178.276306,102.102272 167.473846,102.152000 
	C166.318054,100.333153 165.162247,98.514297 163.981750,96.355293 
z"/>
<path fill="#AA3B88" opacity="1.000000" stroke="none" 
	d="
M274.705750,72.692444 
	C269.106171,73.348198 263.438568,73.682152 257.290985,74.033081 
	C253.674515,69.233559 250.537979,64.417053 247.190613,59.276760 
	C257.517487,61.284451 266.650513,65.574127 274.705750,72.692444 
z"/>
<path fill="#FF5A47" opacity="1.000000" stroke="none" 
	d="
M177.966278,146.537842 
	C179.581039,145.442612 181.225830,144.151505 182.909103,144.099182 
	C190.275772,143.870193 197.653595,144.000259 205.493164,143.999512 
	C206.518631,146.212463 207.078308,148.425949 207.765121,151.142151 
	C198.938828,151.142151 190.521088,151.338989 182.130280,150.952179 
	C180.699142,150.886200 179.383179,148.322113 177.966278,146.537842 
z"/>
<path fill="#AA307F" opacity="1.000000" stroke="none" 
	d="
M249.047714,73.490509 
	C247.420547,74.218880 245.748383,74.920967 244.065872,74.946655 
	C236.340240,75.064606 228.611740,74.993553 220.411530,74.983009 
	C221.397491,72.391396 222.856186,69.807098 225.016373,67.266388 
	C232.076569,67.239029 238.435242,67.168083 244.793930,67.097130 
	C246.195267,69.115654 247.596603,71.134178 249.047714,73.490509 
z"/>
<path fill="#FF8250" opacity="1.000000" stroke="none" 
	d="
M195.762985,169.494293 
	C201.106094,168.804001 206.660553,168.393402 212.694717,167.968292 
	C216.346786,172.523529 219.519180,177.093262 222.767990,181.773087 
	C212.766556,180.243347 203.971909,175.920349 195.762985,169.494293 
z"/>
<path fill="#F3284A" opacity="1.000000" stroke="none" 
	d="
M167.567596,102.494308 
	C178.276306,102.102272 189.078766,102.052544 200.335571,102.003250 
	C199.759552,103.895905 198.729187,105.788116 197.433945,107.865074 
	C188.741714,108.035271 180.314392,108.020714 171.414551,108.011642 
	C169.848495,106.290276 168.754929,104.563438 167.567596,102.494308 
z"/>
<path fill="#FF8454" opacity="1.000000" stroke="none" 
	d="
M255.969162,168.219391 
	C261.947327,168.359055 267.629578,168.682816 273.747925,169.043945 
	C266.553864,176.162735 257.245239,179.638611 247.159744,182.109299 
	C250.159592,177.279861 252.916428,172.841690 255.969162,168.219391 
z"/>
<path fill="#F3284A" opacity="1.000000" stroke="none" 
	d="
M295.759521,106.669113 
	C287.820923,107.340599 279.889465,107.685196 271.956329,107.986305 
	C269.963898,108.061928 267.966125,107.998039 265.504822,107.999161 
	C264.717560,106.251755 264.396332,104.503479 264.574188,102.377937 
	C274.766266,101.981087 284.459259,101.961502 294.152222,101.941917 
	C294.690155,103.403313 295.228088,104.864716 295.759521,106.669113 
z"/>
<path fill="#E62852" opacity="1.000000" stroke="none" 
	d="
M294.126709,101.563080 
	C284.459259,101.961502 274.766266,101.981087 264.614990,102.002388 
	C263.832550,100.257515 263.508453,98.510925 263.671814,96.383881 
	C271.639923,96.001610 279.122925,96.099228 286.599304,95.919167 
	C288.210571,95.880356 289.797729,94.840126 291.395996,94.261177 
	C292.297729,96.568863 293.199432,98.876549 294.126709,101.563080 
z"/>
<path fill="#FF4743" opacity="1.000000" stroke="none" 
	d="
M205.035309,136.571289 
	C199.268936,136.668060 193.577972,136.338730 187.460785,136.009796 
	C189.515305,132.348373 191.486252,128.124527 194.669495,125.237221 
	C196.555252,123.526764 200.354828,123.926247 203.408035,123.355644 
	C204.041840,128.116364 204.576279,132.130768 205.035309,136.571289 
z"/>
<path fill="#D92A5C" opacity="1.000000" stroke="none" 
	d="
M291.296051,93.917091 
	C289.797729,94.840126 288.210571,95.880356 286.599304,95.919167 
	C279.122925,96.099228 271.639923,96.001610 263.707642,96.004677 
	C262.764282,94.138214 262.272491,92.270493 261.634583,89.847725 
	C270.596893,89.847725 278.977600,89.685005 287.338928,90.014412 
	C288.669312,90.066826 289.912567,92.331245 291.296051,93.917091 
z"/>
<path fill="#BE3376" opacity="1.000000" stroke="none" 
	d="
M175.196747,81.914963 
	C169.651138,82.411880 164.105530,82.908783 158.287689,83.686432 
	C156.907913,81.206680 155.800354,78.446198 155.151810,75.344452 
	C160.246353,74.613518 164.881882,74.223839 169.719910,74.082336 
	C171.680527,76.858665 173.438644,79.386818 175.196747,81.914963 
z"/>
<path fill="#AA307F" opacity="1.000000" stroke="none" 
	d="
M169.517395,73.834160 
	C164.881882,74.223839 160.246353,74.613518 155.203094,75.009689 
	C154.571823,71.982300 154.348267,68.948425 154.635651,65.542053 
	C159.818451,65.461037 164.490311,65.752518 169.158951,66.479904 
	C169.276291,69.221924 169.396851,71.528038 169.517395,73.834160 
z"/>
<path fill="#AA307F" opacity="1.000000" stroke="none" 
	d="
M213.848541,66.007339 
	C213.802841,68.824364 213.757141,71.641388 212.961578,74.740677 
	C210.088150,75.015297 207.916626,75.284378 205.853577,74.927094 
	C203.490921,74.517929 201.224594,73.552567 198.892242,72.405914 
	C198.847321,70.003624 198.826584,68.024292 199.283356,66.030663 
	C204.456757,66.013359 209.152649,66.010345 213.848541,66.007339 
z"/>
<path fill="#BE3376" opacity="1.000000" stroke="none" 
	d="
M198.916412,72.828857 
	C201.224594,73.552567 203.490921,74.517929 205.853577,74.927094 
	C207.916626,75.284378 210.088150,75.015297 212.684631,75.039955 
	C212.447723,77.470360 211.737946,79.883759 210.893158,82.652817 
	C205.351074,82.567970 199.944000,82.127472 194.470337,81.120705 
	C195.907974,77.979248 197.412201,75.404053 198.916412,72.828857 
z"/>
<path fill="#9C3990" opacity="1.000000" stroke="none" 
	d="
M169.162170,66.043999 
	C164.490311,65.752518 159.818451,65.461037 154.760498,65.101959 
	C154.876022,62.915680 155.377625,60.797001 156.487946,58.339745 
	C162.493515,58.368923 167.890366,58.736679 173.126801,59.410629 
	C171.698334,61.825882 170.430252,63.934940 169.162170,66.043999 
z"/>
<path fill="#8E3B9A" opacity="1.000000" stroke="none" 
	d="
M185.993515,54.755100 
	C187.491455,54.170765 188.962387,53.175976 190.492157,53.075336 
	C196.177399,52.701332 201.882004,52.621468 207.857330,52.096268 
	C209.205872,53.558975 210.276413,55.356567 210.985046,57.572258 
	C205.366104,58.343475 200.109100,58.696598 194.533447,58.930557 
	C191.474380,57.459297 188.733948,56.107197 185.993515,54.755100 
z"/>
<path fill="#9C3990" opacity="1.000000" stroke="none" 
	d="
M194.852081,59.049721 
	C200.109100,58.696598 205.366104,58.343475 211.079224,57.919060 
	C212.336746,60.315109 213.138199,62.782455 213.894104,65.628571 
	C209.152649,66.010345 204.456757,66.013359 199.098206,65.758705 
	C197.241058,63.350597 196.046570,61.200157 194.852081,59.049721 
z"/>
<path fill="#8E3B9A" opacity="1.000000" stroke="none" 
	d="
M173.287201,59.104431 
	C167.890366,58.736679 162.493515,58.368923 156.643082,58.001663 
	C157.248688,56.076378 158.307877,54.150593 159.633728,52.026154 
	C162.891373,52.218983 165.876068,52.669842 168.874893,52.987278 
	C172.839844,53.406986 176.815872,53.722206 180.567719,54.582947 
	C177.994614,56.423851 175.640900,57.764141 173.287201,59.104431 
z"/>
<path fill="#AA3B88" opacity="1.000000" stroke="none" 
	d="
M244.666809,66.789062 
	C238.435242,67.168083 232.076569,67.239029 225.331268,67.140495 
	C231.907333,59.205971 237.236252,59.072708 244.666809,66.789062 
z"/>
<path fill="#FDFDFD" opacity="1.000000" stroke="none" 
	d="
M428.256134,123.895386 
	C423.509796,130.747833 418.397949,132.837494 412.043518,130.793518 
	C405.868195,128.807159 401.919220,122.927094 402.278778,116.253784 
	C402.651642,109.334053 406.752411,104.241737 413.264740,102.611534 
	C421.741089,100.489700 429.732971,107.006317 429.749481,116.287338 
	C429.753784,118.707840 428.897278,121.129868 428.256134,123.895386 
z"/>
<path fill="#FDFDFD" opacity="1.000000" stroke="none" 
	d="
M765.870483,104.903061 
	C771.666992,110.820343 773.161987,117.676460 770.178101,123.665207 
	C766.984436,130.075104 759.649292,133.084915 752.965759,130.728134 
	C746.737183,128.531784 742.863770,120.649223 744.516052,113.532547 
	C746.918579,103.184509 755.488281,99.569115 765.870483,104.903061 
z"/>
<path fill="#E7E6E8" opacity="1.000000" stroke="none" 
	d="
M877.871582,105.772789 
	C882.990417,98.907242 896.818054,100.966141 897.776184,110.288795 
	C890.438354,110.288795 883.122437,110.288795 875.134949,110.288795 
	C876.061401,108.702721 876.838745,107.372032 877.871582,105.772789 
z"/>
<path fill="#FDFDFD" opacity="1.000000" stroke="none" 
	d="
M498.012756,118.636093 
	C496.060303,127.407906 490.927246,131.897141 483.826324,131.446838 
	C476.715851,130.995926 471.337646,125.540215 470.839874,118.273216 
	C470.277130,110.057777 474.334595,104.308586 481.978943,102.510689 
	C489.469818,100.748886 499.079498,107.093750 498.012756,118.636093 
z"/>
<path fill="#FEFDFE" opacity="1.000000" stroke="none" 
	d="
M173.126801,59.410629 
	C175.640900,57.764141 177.994614,56.423851 180.675827,54.966667 
	C182.390152,54.842888 183.776947,54.835999 185.578644,54.792103 
	C188.733948,56.107197 191.474380,57.459297 194.533447,58.930557 
	C196.046570,61.200157 197.241058,63.350597 198.620697,65.772995 
	C198.826584,68.024292 198.847321,70.003624 198.892242,72.405914 
	C197.412201,75.404053 195.907974,77.979248 194.212799,80.841331 
	C188.165833,84.710869 182.195801,86.191788 175.560379,82.012482 
	C173.438644,79.386818 171.680527,76.858665 169.719910,74.082336 
	C169.396851,71.528038 169.276291,69.221924 169.158951,66.479904 
	C170.430252,63.934940 171.698334,61.825882 173.126801,59.410629 
z"/>
</svg>