<svg version="1.1" id="Layer_1" xmlns="http://www.w3.org/2000/svg" xmlns:xlink="http://www.w3.org/1999/xlink" x="0px" y="0px"
	 width="100%" viewBox="0 0 457 159" enable-background="new 0 0 457 159" xml:space="preserve">
<path fill="#121616" opacity="1.000000" stroke="none" 
	d="
M171.000000,1.000000 
	C210.687561,1.000000 250.375122,1.000000 290.588318,1.340588 
	C291.877930,2.738286 292.471039,3.993150 293.431366,4.822979 
	C309.064331,18.331509 318.914520,35.350445 324.259613,55.159420 
	C325.531525,59.873066 327.029785,64.525642 328.267426,69.518768 
	C322.009888,76.395111 321.762054,82.506996 327.145447,92.991104 
	C326.545990,96.019798 325.947021,98.603973 325.442017,101.206383 
	C320.991150,124.143280 309.196136,142.618423 291.387451,157.478516 
	C290.701355,158.051010 290.452576,159.147614 290.000000,160.000000 
	C252.979111,160.000000 215.958206,160.000000 178.410583,159.657867 
	C176.649002,158.041077 175.516144,156.643829 174.159561,155.515533 
	C170.592117,152.548370 166.662262,149.971375 163.347168,146.754227 
	C148.924271,132.757523 139.570053,115.842247 135.344757,96.141159 
	C143.027405,93.545471 146.112854,90.078171 145.991791,84.432281 
	C145.869003,78.706329 142.691650,75.378944 135.216461,73.264648 
	C132.502884,72.497139 129.655548,72.104057 127.060501,71.063248 
	C125.984970,70.631882 124.875496,68.991699 124.784958,67.823471 
	C124.717369,66.951424 126.208946,65.220673 127.096458,65.158379 
	C129.281326,65.005058 132.706360,64.796394 133.527725,66.021393 
	C137.013901,71.220718 140.971375,68.726883 145.080887,67.725899 
	C143.748306,62.685043 140.519241,59.613937 135.995453,57.325287 
	C139.913818,36.591110 150.526886,20.300446 166.043320,6.906840 
	C167.964005,5.248912 169.360565,2.983769 171.000000,1.000000 
M275.042786,79.663826 
	C275.017792,77.473427 274.992798,75.283020 275.791138,73.322540 
	C278.522430,72.774300 281.253723,72.226059 284.357239,71.603111 
	C282.743073,63.210899 277.056274,59.505459 269.896973,56.422318 
	C267.616791,52.800713 265.888916,48.636089 262.957550,45.654762 
	C252.249649,34.764435 239.504105,29.102875 223.699905,29.824982 
	C207.958450,30.544218 195.986771,37.517769 187.120834,49.719784 
	C182.933136,55.483215 180.700928,62.667492 176.898987,69.069862 
	C172.621552,65.941010 168.101944,65.659904 163.301804,67.783920 
	C162.388992,68.187836 161.251205,68.406487 160.273331,68.279297 
	C157.402115,67.905830 154.559158,67.315170 151.864044,66.837723 
	C151.864044,80.225975 151.864044,92.600166 151.864044,104.862534 
	C155.318085,104.862534 158.052124,104.862534 161.068420,104.862534 
	C161.068420,101.144142 161.068420,97.750916 161.068420,94.047989 
	C167.918900,97.910347 174.043777,97.104996 180.111038,93.280014 
	C180.416672,94.053017 180.728485,94.823631 181.026993,95.599365 
	C189.295181,117.085144 208.050140,128.805695 229.152359,128.744141 
	C243.464218,128.702393 255.972717,122.260643 265.105408,110.986183 
	C268.605774,106.664940 270.390717,100.954124 273.363159,95.329369 
	C279.597504,92.823967 283.475555,88.454262 284.547516,81.091576 
	C281.244568,80.863396 278.211365,80.653839 275.042786,79.663826 
M289.810303,57.591675 
	C289.810303,70.183022 289.810303,82.774361 289.810303,95.531548 
	C293.459198,95.531548 296.174622,95.531548 299.232758,95.531548 
	C299.232758,90.736061 299.101959,86.255753 299.273376,81.787033 
	C299.415405,78.085205 300.277496,74.555496 305.131958,74.907486 
	C309.667755,75.236374 309.970215,78.707047 309.983154,82.200333 
	C309.999542,86.622673 309.987091,91.045120 309.987091,95.471710 
	C313.551758,95.471710 316.264130,95.471710 319.396301,95.471710 
	C319.009613,88.627617 319.081329,82.114685 318.167145,75.743210 
	C317.094116,68.264748 310.537415,64.769272 303.353394,67.219307 
	C302.006897,67.678513 300.745026,68.385841 298.872650,69.239090 
	C298.872650,64.316177 298.872650,59.899693 298.872650,54.250858 
	C295.394073,55.157295 292.599091,55.885605 289.810303,57.591675 
z"/>
<path fill="#0D1111" opacity="1.000000" stroke="none" 
	d="
M290.468658,160.000000 
	C290.452576,159.147614 290.701355,158.051010 291.387451,157.478516 
	C309.196136,142.618423 320.991150,124.143280 325.442017,101.206383 
	C325.947021,98.603973 326.545990,96.019798 327.472961,93.132965 
	C332.860870,96.682343 338.215790,97.836159 344.131287,94.983070 
	C344.715393,94.701332 345.509369,94.676323 346.173035,94.768700 
	C349.067108,95.171570 351.949005,95.661858 354.636597,96.088829 
	C354.636597,85.882111 354.636597,76.655251 354.636597,66.758766 
	C350.674561,67.285698 346.901550,68.931801 344.077606,67.922485 
	C338.372955,65.883545 333.442261,66.304817 328.423950,69.206306 
	C327.029785,64.525642 325.531525,59.873066 324.259613,55.159420 
	C318.914520,35.350445 309.064331,18.331509 293.431366,4.822979 
	C292.471039,3.993150 291.877930,2.738286 291.057007,1.340588 
	C317.354218,1.000000 343.708466,1.000000 370.545441,1.376707 
	C371.732117,3.598270 372.461182,5.433968 373.135834,7.289459 
	C377.651520,19.709007 382.780090,31.951721 386.451660,44.616566 
	C389.053375,53.591034 389.680634,63.137890 391.130371,72.791290 
	C387.915649,78.904488 388.282532,84.598328 391.275391,90.714172 
	C390.813293,93.293289 390.265717,95.391266 390.062775,97.522057 
	C388.499542,113.933350 384.515442,129.716568 378.068512,144.892609 
	C375.947052,149.886505 374.017365,154.961868 372.000000,160.000000 
	C344.979095,160.000000 317.958221,160.000000 290.468658,160.000000 
M382.811737,80.730865 
	C378.270599,79.079582 373.729431,77.428291 369.188293,75.777008 
	C369.212250,75.172920 369.236206,74.568832 369.260193,73.964745 
	C371.196899,73.830521 374.070679,72.820572 374.906647,73.715073 
	C378.353912,77.403778 381.542969,75.247108 385.047791,74.506027 
	C381.821686,66.453789 369.313385,63.815849 363.162262,69.530083 
	C358.324982,74.023804 359.788269,81.256943 366.087860,83.488800 
	C368.263367,84.259552 370.649414,84.423782 372.851013,85.137398 
	C374.325012,85.615158 375.669373,86.533791 376.976105,87.399467 
	C377.068085,87.460419 376.436890,89.267326 376.025116,89.318291 
	C374.447723,89.513496 372.094086,89.989594 371.338623,89.163795 
	C367.621277,85.100517 363.977783,87.878006 360.129303,88.342094 
	C362.849091,95.592644 371.941467,98.720779 379.976685,95.528847 
	C386.539856,92.921700 387.952057,87.095398 382.811737,80.730865 
z"/>
<path fill="#0E1212" opacity="1.000000" stroke="none" 
	d="
M134.995514,96.277809 
	C139.570053,115.842247 148.924271,132.757523 163.347168,146.754227 
	C166.662262,149.971375 170.592117,152.548370 174.159561,155.515533 
	C175.516144,156.643829 176.649002,158.041077 177.941925,159.657867 
	C148.979111,160.000000 119.958214,160.000000 90.466385,159.614410 
	C89.827568,158.260880 89.837463,157.217804 89.464996,156.336319 
	C84.343109,144.214767 79.194649,132.104218 73.982193,120.021378 
	C73.071014,117.909180 71.836327,115.936531 70.779930,113.553291 
	C68.901054,110.136223 66.993301,107.065300 65.316681,103.877182 
	C65.999199,103.505447 66.450584,103.250900 67.072479,103.308266 
	C70.095253,107.414085 71.793755,113.281914 77.567413,112.817696 
	C82.601082,112.412987 84.019829,107.270775 85.628540,103.094749 
	C85.716507,102.866440 85.480659,102.513382 85.387260,102.189705 
	C79.285477,102.189705 73.184189,102.189705 66.938995,101.862000 
	C66.560287,100.620399 66.325493,99.706505 66.553535,98.787712 
	C73.611374,98.782814 80.206375,98.782814 87.316406,98.782814 
	C87.857925,94.014198 88.349579,89.684662 88.935455,84.525475 
	C82.172752,84.525475 76.083420,84.525475 69.984070,84.240570 
	C69.980019,83.385597 69.985985,82.815529 70.445908,82.119980 
	C76.746307,81.994484 82.592743,81.994484 88.815216,81.994484 
	C88.303940,78.068344 87.856628,75.143433 87.558006,72.203423 
	C87.228729,68.961494 85.636200,67.830795 82.323997,67.978951 
	C77.559631,68.192055 72.770134,67.843307 67.983948,67.414543 
	C67.980873,66.454948 67.985214,65.815178 68.449356,65.080002 
	C74.265221,64.984581 79.621284,64.984581 85.563538,64.984581 
	C83.561340,59.730057 82.129654,55.022881 77.244270,53.927231 
	C72.108788,52.775486 70.454163,57.615078 68.143379,60.927006 
	C67.694878,61.569832 67.380783,62.306435 66.582474,62.939178 
	C65.880501,62.827591 65.600746,62.776611 65.276962,62.305592 
	C65.457977,59.925484 65.683022,57.965416 66.290413,55.976273 
	C67.756187,54.111156 69.240738,52.400021 69.857658,50.418724 
	C73.739609,37.951347 77.337227,25.395315 81.233696,12.932637 
	C82.508018,8.856780 84.393837,4.972106 86.000000,0.999999 
	C114.020897,1.000000 142.041794,1.000000 170.531342,1.000000 
	C169.360565,2.983769 167.964005,5.248912 166.043320,6.906840 
	C150.526886,20.300446 139.913818,36.591110 135.587769,57.306656 
	C131.250198,57.726467 127.221588,57.234970 123.412628,57.936363 
	C117.889755,58.953358 114.677383,63.273300 114.580276,68.423950 
	C114.482933,73.587852 117.102798,77.254707 122.580833,79.022324 
	C126.206894,80.192368 130.022888,80.780220 133.632751,81.990089 
	C134.709106,82.350830 136.032562,83.924950 136.046219,84.958916 
	C136.059952,85.999245 134.797455,87.588509 133.724945,88.020493 
	C128.633179,90.071342 125.304047,87.406372 122.924202,83.277214 
	C119.765823,83.925674 116.872940,84.519623 112.714508,85.373405 
	C114.955528,88.287498 116.374657,90.901215 118.481598,92.716675 
	C123.237373,96.814529 129.091675,96.912376 134.995514,96.277809 
M105.208275,84.834892 
	C100.919899,84.834892 96.631516,84.834892 92.103806,84.834892 
	C91.611877,89.626770 91.166412,93.966034 90.678253,98.721252 
	C92.950356,98.721252 94.583755,98.719574 96.217155,98.721542 
	C104.754837,98.731819 107.460876,96.225937 107.791374,87.678436 
	C107.826874,86.760605 106.712456,85.798309 105.208275,84.834892 
M90.999512,68.024094 
	C91.232536,72.592239 91.465553,77.160385 91.686684,81.495377 
	C97.579651,81.495377 102.609055,81.495377 107.661850,81.495377 
	C106.336212,68.422134 105.656448,67.789978 93.398933,67.846756 
	C92.899773,67.849068 92.400681,67.864136 90.999512,68.024094 
M92.790192,64.981613 
	C95.343788,64.981613 97.897385,64.981613 101.612770,64.981613 
	C96.082558,58.421158 90.826775,54.130444 83.280159,53.188347 
	C84.944794,56.586700 86.261482,59.807167 88.078484,62.715012 
	C88.778755,63.835693 90.616211,64.245796 92.790192,64.981613 
M93.727043,102.006798 
	C92.128159,102.531250 89.787544,102.573761 89.073296,103.673004 
	C87.143303,106.643341 85.905212,110.063248 84.377846,113.336464 
	C91.057571,112.918556 99.478058,107.110695 100.578796,102.005188 
	C98.556442,102.005188 96.582527,102.005188 93.727043,102.006798 
z"/>
<path fill="#070B0B" opacity="1.000000" stroke="none" 
	d="
M391.189270,72.429245 
	C389.680634,63.137890 389.053375,53.591034 386.451660,44.616566 
	C382.780090,31.951721 377.651520,19.709007 373.135834,7.289459 
	C372.461182,5.433968 371.732117,3.598270 371.014099,1.376707 
	C387.354218,1.000000 403.708466,1.000000 420.531860,1.412109 
	C421.665070,4.544407 422.079681,7.355474 423.032532,9.970410 
	C430.702637,31.019688 435.278931,52.747986 435.823761,75.100464 
	C436.121765,87.325043 435.351501,99.691307 433.720245,111.812988 
	C432.247864,122.754128 429.029236,133.469070 426.418549,144.244476 
	C425.134979,149.542175 423.484467,154.750977 422.000000,160.000000 
	C405.645782,160.000000 389.291534,160.000000 372.468658,160.000000 
	C374.017365,154.961868 375.947052,149.886505 378.068512,144.892609 
	C384.515442,129.716568 388.499542,113.933350 390.062775,97.522057 
	C390.265717,95.391266 390.813293,93.293289 391.542175,90.963104 
	C396.094604,96.260902 401.877472,97.389107 408.163452,95.984665 
	C412.532776,95.008438 416.318176,92.796463 417.447266,87.620049 
	C413.708649,87.020042 410.663361,85.281929 407.106903,88.414124 
	C404.094788,91.066910 399.599640,88.421867 398.404694,83.861977 
	C401.772583,83.861977 405.085388,83.861977 408.398224,83.861977 
	C411.671051,83.861977 414.943848,83.861977 418.908234,83.861977 
	C418.295593,80.684311 418.206818,77.994484 417.253082,75.657700 
	C412.818207,64.792236 400.440308,63.321648 391.189270,72.429245 
z"/>
<path fill="#070B0B" opacity="1.000000" stroke="none" 
	d="
M69.991951,82.245468 
	C69.985985,82.815529 69.980019,83.385597 69.563370,84.353195 
	C67.703369,84.813187 66.254066,84.875641 64.407928,84.952209 
	C62.948299,85.002121 61.885517,85.037910 60.420769,85.063927 
	C54.022980,83.344612 53.976761,90.164322 50.530090,92.023689 
	C48.921326,90.099373 47.499260,88.398369 46.077190,86.697365 
	C45.726589,86.946869 45.375988,87.196365 45.025387,87.445869 
	C46.476631,91.534058 47.927879,95.622246 49.431793,99.858810 
	C52.441132,99.858810 55.250099,99.732529 58.043339,99.888275 
	C62.281277,100.124573 63.897697,98.844589 62.270065,94.377258 
	C61.578743,92.479805 62.098339,90.141159 62.394249,88.002289 
	C63.374065,88.005974 64.027237,88.010384 64.785713,88.448219 
	C65.290909,92.185303 65.690804,95.488953 66.090698,98.792610 
	C66.325493,99.706505 66.560287,100.620399 66.929916,102.071777 
	C67.064751,102.609253 66.901962,102.996353 66.901962,102.996353 
	C66.450584,103.250900 65.999199,103.505447 65.064903,103.557419 
	C60.608700,102.751312 56.635418,102.147781 52.662132,101.544258 
	C57.102474,108.778526 63.077938,112.703339 70.751053,113.899437 
	C71.836327,115.936531 73.071014,117.909180 73.982193,120.021378 
	C79.194649,132.104218 84.343109,144.214767 89.464996,156.336319 
	C89.837463,157.217804 89.827568,158.260880 89.997726,159.614410 
	C72.645775,160.000000 55.291546,160.000000 37.408325,159.629852 
	C29.384901,138.344070 22.472126,117.362999 20.789127,94.905472 
	C18.989264,70.888466 19.901514,47.235386 26.501247,23.964315 
	C28.671812,16.310766 30.833986,8.654839 33.000000,1.000000 
	C50.354229,1.000000 67.708458,1.000000 85.531342,0.999999 
	C84.393837,4.972106 82.508018,8.856780 81.233696,12.932637 
	C77.337227,25.395315 73.739609,37.951347 69.857658,50.418724 
	C69.240738,52.400021 67.756187,54.111156 66.081497,55.670006 
	C64.167542,48.885281 60.241158,44.582325 53.873451,43.107689 
	C47.991688,41.745579 42.572945,43.139088 38.688171,48.188934 
	C34.601730,53.500935 34.507271,59.202579 37.480713,65.059074 
	C39.648376,69.328506 41.703796,73.665916 44.099258,77.805191 
	C45.992298,81.076286 48.326561,84.092049 51.102413,88.154152 
	C56.244190,78.958595 60.782593,70.842110 65.320992,62.725632 
	C65.600746,62.776611 65.880501,62.827591 66.694092,63.221115 
	C67.481812,64.100914 67.735680,64.638168 67.989555,65.175415 
	C67.985214,65.815178 67.980873,66.454948 67.606689,67.559860 
	C66.127007,72.416702 65.017159,76.808388 63.815552,81.563202 
	C66.777756,81.890419 68.384850,82.067940 69.991951,82.245468 
z"/>
<path fill="#030707" opacity="1.000000" stroke="none" 
	d="
M422.468658,160.000000 
	C423.484467,154.750977 425.134979,149.542175 426.418549,144.244476 
	C429.029236,133.469070 432.247864,122.754128 433.720245,111.812988 
	C435.351501,99.691307 436.121765,87.325043 435.823761,75.100464 
	C435.278931,52.747986 430.702637,31.019688 423.032532,9.970410 
	C422.079681,7.355474 421.665070,4.544407 421.000549,1.412109 
	C433.310028,1.000000 445.620087,1.000000 457.965057,1.000000 
	C457.965057,53.876556 457.965057,106.753143 457.965057,160.000000 
	C446.315033,160.000000 434.626190,160.000000 422.468658,160.000000 
z"/>
<path fill="#040808" opacity="1.000000" stroke="none" 
	d="
M32.532394,1.000000 
	C30.833986,8.654839 28.671812,16.310766 26.501247,23.964315 
	C19.901514,47.235386 18.989264,70.888466 20.789127,94.905472 
	C22.472126,117.362999 29.384901,138.344070 36.939667,159.629852 
	C31.645071,160.000000 26.290140,160.000000 20.450493,159.607880 
	C19.383244,156.972794 19.028297,154.639954 18.183155,152.500748 
	C9.255655,129.903687 5.210059,106.254631 4.146235,82.180885 
	C3.131013,59.207008 6.453606,36.599358 12.873979,14.472820 
	C14.156820,10.051762 14.970169,5.494473 16.000000,1.000000 
	C21.354929,1.000000 26.709860,1.000000 32.532394,1.000000 
z"/>
<path fill="#030707" opacity="1.000000" stroke="none" 
	d="
M15.527336,1.000000 
	C14.970169,5.494473 14.156820,10.051762 12.873979,14.472820 
	C6.453606,36.599358 3.131013,59.207008 4.146235,82.180885 
	C5.210059,106.254631 9.255655,129.903687 18.183155,152.500748 
	C19.028297,154.639954 19.383244,156.972794 19.982887,159.607880 
	C13.681317,160.000000 7.362635,160.000000 1.043745,160.000000 
	C1.043537,106.999985 1.043537,53.999981 1.043537,1.000000 
	C5.742940,1.000000 10.398807,1.000000 15.527336,1.000000 
z"/>
<path fill="#171B1B" opacity="1.000000" stroke="none" 
	d="
M177.582703,69.207993 
	C180.700928,62.667492 182.933136,55.483215 187.120834,49.719784 
	C195.986771,37.517769 207.958450,30.544218 223.699905,29.824982 
	C239.504105,29.102875 252.249649,34.764435 262.957550,45.654762 
	C265.888916,48.636089 267.616791,52.800713 269.493988,56.839775 
	C257.948273,56.286720 250.109711,60.404186 246.806107,68.963112 
	C243.535995,77.435272 246.138657,86.722694 253.516342,92.514969 
	C259.366058,97.107613 266.126984,96.774658 272.957367,95.876511 
	C270.390717,100.954124 268.605774,106.664940 265.105408,110.986183 
	C255.972717,122.260643 243.464218,128.702393 229.152359,128.744141 
	C208.050140,128.805695 189.295181,117.085144 181.026993,95.599365 
	C180.728485,94.823631 180.416672,94.053017 180.054871,92.590515 
	C185.081161,83.564384 184.299057,76.218292 177.582703,69.207993 
M186.489273,78.186050 
	C186.381531,79.504417 186.126648,80.829926 186.190170,82.139992 
	C186.571289,90.000061 193.683823,96.517258 201.769257,96.490440 
	C210.539200,96.461349 217.051117,90.649353 217.442581,82.501732 
	C217.806610,74.925278 213.027390,68.730209 205.496475,67.016579 
	C197.037491,65.091759 189.894180,69.024239 186.489273,78.186050 
M227.079086,93.339226 
	C232.215195,97.678101 237.599472,97.261635 243.406174,94.306854 
	C242.749069,92.089180 242.150391,90.068703 241.576263,88.131096 
	C233.013535,88.155930 231.324921,85.117752 234.015320,74.770973 
	C236.365250,74.613113 238.783737,74.450653 241.223938,74.286736 
	C241.223938,71.762512 241.223938,69.679161 241.223938,67.366440 
	C238.363449,67.193825 235.806366,67.039520 233.193497,66.881851 
	C233.048721,64.100647 232.922928,61.684330 232.796829,59.261940 
	C229.556320,59.261940 226.807312,59.261940 223.782074,59.261940 
	C223.782074,61.982822 223.782074,64.417572 223.782074,66.897415 
	C222.070740,67.079964 220.634811,67.233131 219.018631,67.405525 
	C219.018631,69.751633 219.018631,71.858437 219.018631,74.121895 
	C220.749176,74.422058 222.289474,74.689224 222.851898,74.786774 
	C224.211380,81.230103 225.422562,86.970558 227.079086,93.339226 
z"/>
<path fill="#D6DADA" opacity="1.000000" stroke="none" 
	d="
M273.160278,95.602936 
	C266.126984,96.774658 259.366058,97.107613 253.516342,92.514969 
	C246.138657,86.722694 243.535995,77.435272 246.806107,68.963112 
	C250.109711,60.404186 257.948273,56.286720 269.541626,57.203857 
	C277.056274,59.505459 282.743073,63.210899 284.357239,71.603111 
	C281.253723,72.226059 278.522430,72.774300 275.376923,72.843025 
	C272.008667,66.704422 267.997070,64.646057 262.565735,66.002594 
	C257.856750,67.178703 254.553421,72.072166 254.870071,77.402740 
	C255.186768,82.734550 259.187195,87.051582 264.517822,87.814079 
	C269.647583,88.547844 272.970306,86.250748 275.178162,80.444290 
	C278.211365,80.653839 281.244568,80.863396 284.547516,81.091576 
	C283.475555,88.454262 279.597504,92.823967 273.160278,95.602936 
z"/>
<path fill="#D5D9D9" opacity="1.000000" stroke="none" 
	d="
M135.344757,96.141159 
	C129.091675,96.912376 123.237373,96.814529 118.481598,92.716675 
	C116.374657,90.901215 114.955528,88.287498 112.714508,85.373405 
	C116.872940,84.519623 119.765823,83.925674 122.924202,83.277214 
	C125.304047,87.406372 128.633179,90.071342 133.724945,88.020493 
	C134.797455,87.588509 136.059952,85.999245 136.046219,84.958916 
	C136.032562,83.924950 134.709106,82.350830 133.632751,81.990089 
	C130.022888,80.780220 126.206894,80.192368 122.580833,79.022324 
	C117.102798,77.254707 114.482933,73.587852 114.580276,68.423950 
	C114.677383,63.273300 117.889755,58.953358 123.412628,57.936363 
	C127.221588,57.234970 131.250198,57.726467 135.588318,57.703495 
	C140.519241,59.613937 143.748306,62.685043 145.080887,67.725899 
	C140.971375,68.726883 137.013901,71.220718 133.527725,66.021393 
	C132.706360,64.796394 129.281326,65.005058 127.096458,65.158379 
	C126.208946,65.220673 124.717369,66.951424 124.784958,67.823471 
	C124.875496,68.991699 125.984970,70.631882 127.060501,71.063248 
	C129.655548,72.104057 132.502884,72.497139 135.216461,73.264648 
	C142.691650,75.378944 145.869003,78.706329 145.991791,84.432281 
	C146.112854,90.078171 143.027405,93.545471 135.344757,96.141159 
z"/>
<path fill="#D6DADA" opacity="1.000000" stroke="none" 
	d="
M177.240845,69.138931 
	C184.299057,76.218292 185.081161,83.564384 179.901016,92.234848 
	C174.043777,97.104996 167.918900,97.910347 161.068420,94.047989 
	C161.068420,97.750916 161.068420,101.144142 161.068420,104.862534 
	C158.052124,104.862534 155.318085,104.862534 151.864044,104.862534 
	C151.864044,92.600166 151.864044,80.225975 151.864044,66.837723 
	C154.559158,67.315170 157.402115,67.905830 160.273331,68.279297 
	C161.251205,68.406487 162.388992,68.187836 163.301804,67.783920 
	C168.101944,65.659904 172.621552,65.941010 177.240845,69.138931 
M168.299103,88.822266 
	C169.717499,88.036285 171.376251,87.500412 172.506287,86.414391 
	C175.198517,83.827026 174.667267,78.119980 171.730331,75.739029 
	C168.590347,73.193459 163.922806,73.936012 161.681580,77.337685 
	C158.740372,81.801758 161.472961,87.173439 168.299103,88.822266 
z"/>
<path fill="#D6DADA" opacity="1.000000" stroke="none" 
	d="
M289.807190,57.102795 
	C292.599091,55.885605 295.394073,55.157295 298.872650,54.250858 
	C298.872650,59.899693 298.872650,64.316177 298.872650,69.239090 
	C300.745026,68.385841 302.006897,67.678513 303.353394,67.219307 
	C310.537415,64.769272 317.094116,68.264748 318.167145,75.743210 
	C319.081329,82.114685 319.009613,88.627617 319.396301,95.471710 
	C316.264130,95.471710 313.551758,95.471710 309.987091,95.471710 
	C309.987091,91.045120 309.999542,86.622673 309.983154,82.200333 
	C309.970215,78.707047 309.667755,75.236374 305.131958,74.907486 
	C300.277496,74.555496 299.415405,78.085205 299.273376,81.787033 
	C299.101959,86.255753 299.232758,90.736061 299.232758,95.531548 
	C296.174622,95.531548 293.459198,95.531548 289.810303,95.531548 
	C289.810303,82.774361 289.810303,70.183022 289.807190,57.102795 
z"/>
<path fill="#D8DCDC" opacity="1.000000" stroke="none" 
	d="
M328.267426,69.518768 
	C333.442261,66.304817 338.372955,65.883545 344.077606,67.922485 
	C346.901550,68.931801 350.674561,67.285698 354.636597,66.758766 
	C354.636597,76.655251 354.636597,85.882111 354.636597,96.088829 
	C351.949005,95.661858 349.067108,95.171570 346.173035,94.768700 
	C345.509369,94.676323 344.715393,94.701332 344.131287,94.983070 
	C338.215790,97.836159 332.860870,96.682343 327.517029,92.696907 
	C321.762054,82.506996 322.009888,76.395111 328.267426,69.518768 
M333.599609,77.116974 
	C331.391296,80.449005 331.645691,83.972015 334.326843,86.523315 
	C335.824677,87.948624 339.172607,89.006844 340.839172,88.281837 
	C342.962830,87.357986 345.325073,84.580345 345.558594,82.386200 
	C345.794525,80.169456 344.056610,77.174576 342.282562,75.444092 
	C339.571045,72.799133 336.499359,74.174942 333.599609,77.116974 
z"/>
<path fill="#1A1E1E" opacity="1.000000" stroke="none" 
	d="
M275.110474,80.054062 
	C272.970306,86.250748 269.647583,88.547844 264.517822,87.814079 
	C259.187195,87.051582 255.186768,82.734550 254.870071,77.402740 
	C254.553421,72.072166 257.856750,67.178703 262.565735,66.002594 
	C267.997070,64.646057 272.008667,66.704422 274.965271,72.728065 
	C274.992798,75.283020 275.017792,77.473427 275.110474,80.054062 
z"/>
<path fill="#D2D6D6" opacity="1.000000" stroke="none" 
	d="
M391.130341,72.791290 
	C400.440308,63.321648 412.818207,64.792236 417.253082,75.657700 
	C418.206818,77.994484 418.295593,80.684311 418.908234,83.861977 
	C414.943848,83.861977 411.671051,83.861977 408.398224,83.861977 
	C405.085388,83.861977 401.772583,83.861977 398.404694,83.861977 
	C399.599640,88.421867 404.094788,91.066910 407.106903,88.414124 
	C410.663361,85.281929 413.708649,87.020042 417.447266,87.620049 
	C416.318176,92.796463 412.532776,95.008438 408.163452,95.984665 
	C401.877472,97.389107 396.094604,96.260902 391.616394,90.497162 
	C388.282532,84.598328 387.915649,78.904488 391.130341,72.791290 
M403.618073,73.868263 
	C401.800446,74.751205 399.982819,75.634140 398.165222,76.517075 
	C398.372101,76.911263 398.579010,77.305458 398.785919,77.699646 
	C402.160675,77.699646 405.535431,77.699646 408.910187,77.699646 
	C409.029510,77.309860 409.148865,76.920082 409.268188,76.530296 
	C407.649567,75.675545 406.030975,74.820793 403.618073,73.868263 
z"/>
<path fill="#D6DADA" opacity="1.000000" stroke="none" 
	d="
M383.136658,80.941055 
	C387.952057,87.095398 386.539856,92.921700 379.976685,95.528847 
	C371.941467,98.720779 362.849091,95.592644 360.129303,88.342094 
	C363.977783,87.878006 367.621277,85.100517 371.338623,89.163795 
	C372.094086,89.989594 374.447723,89.513496 376.025116,89.318291 
	C376.436890,89.267326 377.068085,87.460419 376.976105,87.399467 
	C375.669373,86.533791 374.325012,85.615158 372.851013,85.137398 
	C370.649414,84.423782 368.263367,84.259552 366.087860,83.488800 
	C359.788269,81.256943 358.324982,74.023804 363.162262,69.530083 
	C369.313385,63.815849 381.821686,66.453789 385.047791,74.506027 
	C381.542969,75.247108 378.353912,77.403778 374.906647,73.715073 
	C374.070679,72.820572 371.196899,73.830521 369.260193,73.964745 
	C369.236206,74.568832 369.212250,75.172920 369.188293,75.777008 
	C373.729431,77.428291 378.270599,79.079582 383.136658,80.941055 
z"/>
<path fill="#D0D4D4" opacity="1.000000" stroke="none" 
	d="
M65.276962,62.305592 
	C60.782593,70.842110 56.244190,78.958595 51.102413,88.154152 
	C48.326561,84.092049 45.992298,81.076286 44.099258,77.805191 
	C41.703796,73.665916 39.648376,69.328506 37.480713,65.059074 
	C34.507271,59.202579 34.601730,53.500935 38.688171,48.188934 
	C42.572945,43.139088 47.991688,41.745579 53.873451,43.107689 
	C60.241158,44.582325 64.167542,48.885281 65.699142,55.699081 
	C65.683022,57.965416 65.457977,59.925484 65.276962,62.305592 
M43.316048,59.055614 
	C44.261517,62.939796 46.898693,65.380478 50.702084,65.013840 
	C52.946201,64.797516 56.158474,63.015827 56.843399,61.164268 
	C57.704651,58.836063 57.301765,55.024788 55.813534,53.143764 
	C54.469170,51.444584 50.815006,50.628437 48.384575,50.954063 
	C44.727913,51.443966 43.111889,54.540024 43.316048,59.055614 
z"/>
<path fill="#D2D6D6" opacity="1.000000" stroke="none" 
	d="
M66.553535,98.787712 
	C65.690804,95.488953 65.290909,92.185303 64.850510,88.067810 
	C64.808250,86.482018 64.806503,85.710052 64.804764,84.938095 
	C66.254066,84.875641 67.703369,84.813187 69.573380,84.638100 
	C76.083420,84.525475 82.172752,84.525475 88.935455,84.525475 
	C88.349579,89.684662 87.857925,94.014198 87.316406,98.782814 
	C80.206375,98.782814 73.611374,98.782814 66.553535,98.787712 
z"/>
<path fill="#D0D4D4" opacity="1.000000" stroke="none" 
	d="
M70.445908,82.119980 
	C68.384850,82.067940 66.777756,81.890419 63.815552,81.563202 
	C65.017159,76.808388 66.127007,72.416702 67.614105,67.879692 
	C72.770134,67.843307 77.559631,68.192055 82.323997,67.978951 
	C85.636200,67.830795 87.228729,68.961494 87.558006,72.203423 
	C87.856628,75.143433 88.303940,78.068344 88.815216,81.994484 
	C82.592743,81.994484 76.746307,81.994484 70.445908,82.119980 
z"/>
<path fill="#D0D4D4" opacity="1.000000" stroke="none" 
	d="
M105.669868,84.845764 
	C106.712456,85.798309 107.826874,86.760605 107.791374,87.678436 
	C107.460876,96.225937 104.754837,98.731819 96.217155,98.721542 
	C94.583755,98.719574 92.950356,98.721252 90.678253,98.721252 
	C91.166412,93.966034 91.611877,89.626770 92.103806,84.834892 
	C96.631516,84.834892 100.919899,84.834892 105.669868,84.845764 
z"/>
<path fill="#D0D4D4" opacity="1.000000" stroke="none" 
	d="
M91.450531,67.948677 
	C92.400681,67.864136 92.899773,67.849068 93.398933,67.846756 
	C105.656448,67.789978 106.336212,68.422134 107.661850,81.495377 
	C102.609055,81.495377 97.579651,81.495377 91.686684,81.495377 
	C91.465553,77.160385 91.232536,72.592239 91.450531,67.948677 
z"/>
<path fill="#CACECE" opacity="1.000000" stroke="none" 
	d="
M68.449356,65.080002 
	C67.735680,64.638168 67.481812,64.100914 67.116318,63.281723 
	C67.380783,62.306435 67.694878,61.569832 68.143379,60.927006 
	C70.454163,57.615078 72.108788,52.775486 77.244270,53.927231 
	C82.129654,55.022881 83.561340,59.730057 85.563538,64.984581 
	C79.621284,64.984581 74.265221,64.984581 68.449356,65.080002 
z"/>
<path fill="#CACECE" opacity="1.000000" stroke="none" 
	d="
M67.072479,103.308266 
	C66.901962,102.996353 67.064751,102.609253 67.073822,102.399475 
	C73.184189,102.189705 79.285477,102.189705 85.387260,102.189705 
	C85.480659,102.513382 85.716507,102.866440 85.628540,103.094749 
	C84.019829,107.270775 82.601082,112.412987 77.567413,112.817696 
	C71.793755,113.281914 70.095253,107.414085 67.072479,103.308266 
z"/>
<path fill="#C3C7C7" opacity="1.000000" stroke="none" 
	d="
M70.779930,113.553291 
	C63.077938,112.703339 57.102474,108.778526 52.662132,101.544258 
	C56.635418,102.147781 60.608700,102.751312 64.833771,103.674606 
	C66.993301,107.065300 68.901054,110.136223 70.779930,113.553291 
z"/>
<path fill="#C3C7C7" opacity="1.000000" stroke="none" 
	d="
M92.362869,64.980637 
	C90.616211,64.245796 88.778755,63.835693 88.078484,62.715012 
	C86.261482,59.807167 84.944794,56.586700 83.280159,53.188347 
	C90.826775,54.130444 96.082558,58.421158 101.612770,64.981613 
	C97.897385,64.981613 95.343788,64.981613 92.362869,64.980637 
z"/>
<path fill="#C3C7C7" opacity="1.000000" stroke="none" 
	d="
M94.167831,102.005997 
	C96.582527,102.005188 98.556442,102.005188 100.578796,102.005188 
	C99.478058,107.110695 91.057571,112.918556 84.377846,113.336464 
	C85.905212,110.063248 87.143303,106.643341 89.073296,103.673004 
	C89.787544,102.573761 92.128159,102.531250 94.167831,102.005997 
z"/>
<path fill="#CACECE" opacity="1.000000" stroke="none" 
	d="
M62.067608,88.003021 
	C62.098339,90.141159 61.578743,92.479805 62.270065,94.377258 
	C63.897697,98.844589 62.281277,100.124573 58.043339,99.888275 
	C55.250099,99.732529 52.441132,99.858810 49.431793,99.858810 
	C47.927879,95.622246 46.476631,91.534058 45.025387,87.445869 
	C45.375988,87.196365 45.726589,86.946869 46.077190,86.697365 
	C47.499260,88.398369 48.921326,90.099373 50.530090,92.023689 
	C53.976761,90.164322 54.022980,83.344612 60.521347,85.368065 
	C61.371792,86.455650 61.719700,87.229340 62.067608,88.003021 
z"/>
<path fill="#0E1212" opacity="1.000000" stroke="none" 
	d="
M62.394249,88.002289 
	C61.719700,87.229340 61.371792,86.455650 60.923309,85.377831 
	C61.885517,85.037910 62.948299,85.002121 64.407921,84.952209 
	C64.806503,85.710052 64.808250,86.482018 64.745209,87.634384 
	C64.027237,88.010384 63.374065,88.005974 62.394249,88.002289 
z"/>
<path fill="#D8DCDC" opacity="1.000000" stroke="none" 
	d="
M186.565552,77.791168 
	C189.894180,69.024239 197.037491,65.091759 205.496475,67.016579 
	C213.027390,68.730209 217.806610,74.925278 217.442581,82.501732 
	C217.051117,90.649353 210.539200,96.461349 201.769257,96.490440 
	C193.683823,96.517258 186.571289,90.000061 186.190170,82.139992 
	C186.126648,80.829926 186.381531,79.504417 186.565552,77.791168 
M198.733063,75.088814 
	C194.765213,78.114021 193.744568,81.684090 196.163712,85.287460 
	C198.170197,88.276207 200.993256,89.970284 204.627487,88.108627 
	C208.180695,86.288460 209.486633,83.217377 208.204834,79.401161 
	C206.793213,75.198502 204.044632,73.144867 198.733063,75.088814 
z"/>
<path fill="#D2D6D6" opacity="1.000000" stroke="none" 
	d="
M226.856415,93.025116 
	C225.422562,86.970558 224.211380,81.230103 222.851898,74.786774 
	C222.289474,74.689224 220.749176,74.422058 219.018631,74.121895 
	C219.018631,71.858437 219.018631,69.751633 219.018631,67.405525 
	C220.634811,67.233131 222.070740,67.079964 223.782074,66.897415 
	C223.782074,64.417572 223.782074,61.982822 223.782074,59.261940 
	C226.807312,59.261940 229.556320,59.261940 232.796829,59.261940 
	C232.922928,61.684330 233.048721,64.100647 233.193497,66.881851 
	C235.806366,67.039520 238.363449,67.193825 241.223938,67.366440 
	C241.223938,69.679161 241.223938,71.762512 241.223938,74.286736 
	C238.783737,74.450653 236.365250,74.613113 234.015320,74.770973 
	C231.324921,85.117752 233.013535,88.155930 241.576263,88.131096 
	C242.150391,90.068703 242.749069,92.089180 243.406174,94.306854 
	C237.599472,97.261635 232.215195,97.678101 226.856415,93.025116 
z"/>
<path fill="#1F2323" opacity="1.000000" stroke="none" 
	d="
M167.910828,88.821045 
	C161.472961,87.173439 158.740372,81.801758 161.681580,77.337685 
	C163.922806,73.936012 168.590347,73.193459 171.730331,75.739029 
	C174.667267,78.119980 175.198517,83.827026 172.506287,86.414391 
	C171.376251,87.500412 169.717499,88.036285 167.910828,88.821045 
z"/>
<path fill="#1A1E1E" opacity="1.000000" stroke="none" 
	d="
M333.754578,76.764458 
	C336.499359,74.174942 339.571045,72.799133 342.282562,75.444092 
	C344.056610,77.174576 345.794525,80.169456 345.558594,82.386200 
	C345.325073,84.580345 342.962830,87.357986 340.839172,88.281837 
	C339.172607,89.006844 335.824677,87.948624 334.326843,86.523315 
	C331.645691,83.972015 331.391296,80.449005 333.754578,76.764458 
z"/>
<path fill="#171B1B" opacity="1.000000" stroke="none" 
	d="
M404.015198,73.917152 
	C406.030975,74.820793 407.649567,75.675545 409.268188,76.530296 
	C409.148865,76.920082 409.029510,77.309860 408.910187,77.699646 
	C405.535431,77.699646 402.160675,77.699646 398.785919,77.699646 
	C398.579010,77.305458 398.372101,76.911263 398.165222,76.517075 
	C399.982819,75.634140 401.800446,74.751205 404.015198,73.917152 
z"/>
<path fill="#171B1B" opacity="1.000000" stroke="none" 
	d="
M43.263771,58.673695 
	C43.111889,54.540024 44.727913,51.443966 48.384575,50.954063 
	C50.815006,50.628437 54.469170,51.444584 55.813534,53.143764 
	C57.301765,55.024788 57.704651,58.836063 56.843399,61.164268 
	C56.158474,63.015827 52.946201,64.797516 50.702084,65.013840 
	C46.898693,65.380478 44.261517,62.939796 43.263771,58.673695 
z"/>
<path fill="#1F2323" opacity="1.000000" stroke="none" 
	d="
M199.092636,74.950226 
	C204.044632,73.144867 206.793213,75.198502 208.204834,79.401161 
	C209.486633,83.217377 208.180695,86.288460 204.627487,88.108627 
	C200.993256,89.970284 198.170197,88.276207 196.163712,85.287460 
	C193.744568,81.684090 194.765213,78.114021 199.092636,74.950226 
z"/>
</svg>